<?xml version="1.0" encoding="utf-8"?>
<!-- Generator: Adobe Illustrator 23.0.2, SVG Export Plug-In . SVG Version: 6.00 Build 0)  -->
<svg version="1.1" id="Capa_1" xmlns="http://www.w3.org/2000/svg" xmlns:xlink="http://www.w3.org/1999/xlink" x="0px" y="0px"
	 viewBox="0 0 1000 297.2" style="enable-background:new 0 0 1000 297.2;" xml:space="preserve">
<style type="text/css">
	.st0{fill:#CE1617;}
</style>
<g>
	<path class="st0" d="M116.4,104.9c0,0,0-3.5,4.5-3.4c5.1,0.1,1.5,6.5,8.8,5.5c0,0-5.2,3.3-7.2-0.5
		C120.5,102.7,116.4,104.9,116.4,104.9 M200.5,134c2.5-3.4,1.8-7.6,1.8-7.6s-0.6,1.8-4.6,2.5c-1-3.9,0.3-4.4,5-19.6
		c4.7-15.3-5.3-21.9-13.3-20.3s-9.8,9.8-12.2,15.1c-2.4,5.3-5.7,8.4-5.1,11.4c1.7-2.9,4.4-1.7,7.8-3.9c-3.1,6.1,0.7,8.3-4.2,11.9
		c8.9-1.4,9.6-8.7,8.5-12.6c1.2,1.6,3.6,0.8,4.7,2.1c0.7-1.8,0.2-5.8-2.5-8.1c-4.3-3.7-1.2-10.5,3.5-11.2c3-0.4,10.5,0.3,11,8.5
		c0.5,8-4.2,12.3-9.4,20.3c-5.3,8-2.3,22.3,2.4,23.6c-5.5,12.6-17.8,13.6-17.8,13.6c-6.6-5.3-21.2-4.8-24.1-12.2
		c-0.6-1.5-1.1-3.1,1.5-2.4c2.6,0.7,7.3-1.7,7.3-1.7s-4.3-3.5-3.2-6.7c2.1-1,6.4,1.1,6.4,1.1s0.1-3.5-2.6-5.2
		c-2.8-1.7-3.6-8.1-3.6-8.1s3.7,2.1,8.7,0.1c-1.9-0.3-6-4.2-4.6-8.8c1.5,2.8,4.9,2.2,4.9,2.2s-0.4-1-0.7-3.3l0.1,0.2
		c0,0,0-0.1-0.1-0.2c-0.1-0.5-0.2-1.1-0.2-1.7c-0.2-4.1,0.6-13.4-2.5-17.8c-1.1,0.3-1.9,0.3-2.5,0.3c0.1-2.9,0.3-11.2-2.8-12.9
		c-2,0-6.1,0.5-6.1,0.5s-1.3-4.6-4.8-4.9c-0.3,3.3-6.1,6.6-6.1,6.6c-1.3,0.4-6,0.2-10.3,3.6c-4.3,3.4-6.2,5.8-6.2,6.5
		c0,0.7,1.1,5.1,2.1,5.4l1.2-0.1c1.1,4.3,5.4,6,5.4,6s-1.5-5.2,0.2-6.1c1.7-0.8,7.6-0.4,9.1,5.1c1.6,5.4-2.1,4.7-3.7,4.1
		c-1.6-0.6-1.9-3.6-1.9-3.6s-2.8,2.1-2.1,4.6c-1.8-0.7-5.6-0.8-5.6-0.8s0,3.1,2.4,3.9c2.4,0.8,4-0.3,5.1,1.4c1.1,1.7-1,4.6-2.9,6.3
		c-2.2,1.5-5.2,2.9-8.5,4.3c-5.3,2.2-9.7,7.7-9.7,7.7S105,122,103.9,117.9c2.4-2.4,1.4-10.2-1.2-13.9c-2.6-3.6-10.3-3.8-10.3-3.8
		s1,0.8,0.7,5c-6.9-0.1-10.1,4.8-10.1,4.8s6.1,1,6.4,4.3c-6.5,2.1-7.2,9.8-7.2,9.8s6-2.9,8,0.3c2.1,3.2,11.4,12.6,13.6,15.4
		c2.2,2.8,3.2,5.5,3.9,7.7c0.7,2.2,4.3,2.7,6.4,5.9c2.1,3.2,0.6,7.2,0.6,7.2s-6.4,1.4-10-1.1c-0.3-3.5-1.3-6.3-2.5-8.5
		c-2.5-4.3-5.7-5.3-7.3-5.2c-0.1,3.8-1.7,5.5-1.7,8.4c-0.6-0.1-1.1-0.3-2.8-0.4c-0.8,2,0.8,8.8,1.7,12.9c-1.7,0-6.2,3.5-6.2,3.5
		s1.9,0.4,4.3,1.1c2.4,0.7,10.8-1,10.8-1s-1,2.8-1,5c3.2-1.5,12.9-2,12.9-2s-0.1,2.2,2.2,5c0.4-1.5,2.5-7.1,8.3-9.3
		c-1.2,1.7,0.4,5.8,0.4,5.8s2.9-2,6.1-4.2c3.2-2.2,4.3-5.2,4.8-8.7c3.6,5.1,8.9,5.9,10.3,8c-6.8,5.3-9.5,9.7-10.6,12.3
		c-1.5,2.6-1.4,7.5-1.4,7.5s1.7-3.9,3.8-1.9c0.9,1.3,1.7,3.1,1.9,5.4c0.6,5.9-3.1,12-4.2,12.4c-6.2,2.3-10.1-4.1-13.3-3.2
		c-6.8,2-6.9,7.2-6.1,9c0.5,1.1,3,3.2,5.5,4.7c-0.7,0.8-1.5,2.1-1.2,3c0.3-0.4,1.4-0.8,5.2-1.5c-0.1,1.3,0.7,4.2,2.7,4.8
		c0.5-2.7,4.2-3.6,4.2-3.6s6.1-0.3,8.3-2.6c3.9-4.2,12.1-12.1,12.1-18.1c0-2.9-0.3-12.9,0.4-14.5c1.3-2.9,2.9-3.8,8-4.8
		c-0.3,0.7-0.6,1.4-0.7,2.2c-1.5,5.7-0.5,11.2,0,12.1c0.4-1.4,1.4-2.5,1.9-2.9c0,0.1,0,0.1,0.1,0.2c0.5,6.8,3.8,9.2,3.8,9.2
		s-0.1-3.5,3-3.2c3,0.3,11.2,2.9,11.2,2.9s1.7,1,1.4,7.9c-0.2,3.8-4.2,5.6-4.2,5.6s-4.8-1.3-9.3-0.4c-4.4,0.8-3.2,7.9-3.2,7.9
		s3,1.5,5.6,1.5c0,1.3,0.4,3.6,0.4,3.6s2.9-3.6,6.8-4.2c-1.2,2.2-0.3,3.9-0.3,3.9s1.3-2.7,3.4-3.2c1.3-0.3,3.7-0.7,5.6-2.3
		c0.9-0.7,1.4-1.2,1.8-3.3c1.1-5.8,0.5-20.4-0.3-22.2c-3.5,0-10.1-7.2-9.3-12.3c1.5-9.9-0.2-15-0.2-15s1.9-0.8,10.1-6.8
		c8.2-6,8.4-12.1,8.9-14.1c8.1-2.3,8.1-14,8.1-14S204.6,133.8,200.5,134"/>
	<polygon class="st0" points="231.9,203.4 229.3,202.9 229.3,200.8 247.1,200.8 247.5,206.5 245.2,206.5 244.1,203.2 236.8,202.8 
		236.8,211.8 241.5,211.7 242,209 244.2,209 244.2,217.1 242,217.1 241.5,214.2 236.8,214.1 236.8,223.5 244.9,223.1 246.9,218.9 
		249.4,219.6 248.5,225.7 229.3,225.7 229.3,223.7 231.9,223.3 	"/>
	<path class="st0" d="M263.9,225.7c-1-0.2-2-0.5-3.2-0.8c-0.8-0.2-1.3-0.3-1.6-0.4l0.3-6.2h2.7l0.7,4.3c0.3,0.3,0.8,0.6,1.6,0.8
		c0.7,0.2,1.6,0.4,2.6,0.4c1.5,0,2.6-0.3,3.4-1c0.7-0.7,1.1-1.6,1.1-2.8c0-0.8-0.2-1.5-0.7-2c-0.4-0.6-1.1-1.1-1.8-1.5
		c-0.8-0.5-1.8-1-3.2-1.6c-1.8-0.8-3.4-1.9-4.6-3c-1.2-1.2-1.8-2.8-1.8-4.8c0-1.2,0.3-2.4,1-3.4c0.6-1,1.6-1.8,2.9-2.4
		c1.3-0.6,2.8-0.9,4.7-0.9c1.1,0,2.1,0.1,2.9,0.2c0.8,0.2,1.7,0.4,2.7,0.6c0.6,0.2,1,0.3,1.3,0.3l-0.2,5.8h-2.7l-0.7-4.1
		c-0.2-0.2-0.6-0.4-1.2-0.6c-0.6-0.2-1.3-0.3-2-0.3c-1.3,0-2.3,0.3-3,0.9c-0.7,0.6-1,1.4-1,2.5c0,0.8,0.2,1.5,0.8,2.1
		c0.5,0.6,1.1,1.1,1.8,1.5c0.7,0.4,1.8,1,3.4,1.8c1.2,0.6,2.3,1.2,3.2,1.8c0.9,0.6,1.7,1.3,2.3,2.3c0.6,0.9,1,2,1,3.3
		c0,1.2-0.3,2.4-0.9,3.5c-0.6,1.1-1.6,2-3,2.8s-3.2,1.1-5.3,1.1C265.9,226.1,264.9,225.9,263.9,225.7"/>
	<path class="st0" d="M288.7,222.7c-2-2.3-3-5.4-3-9.3c0-2.6,0.5-4.8,1.6-6.8c1.1-1.9,2.5-3.4,4.4-4.5c1.8-1,3.9-1.6,6.3-1.6
		c1,0,1.9,0.1,2.8,0.2c0.9,0.1,2,0.3,3.2,0.5c0.9,0.2,1.5,0.2,1.5,0.2l-0.4,6.9h-3.1l-1-4.8c-0.2-0.2-0.7-0.4-1.3-0.6
		c-0.6-0.2-1.4-0.2-2.3-0.2c-1.9,0-3.4,0.9-4.6,2.6c-1.2,1.7-1.7,4.3-1.7,7.6c0,3.2,0.5,5.8,1.6,7.8c1.1,2,2.7,3,4.8,3
		c1,0,1.8-0.1,2.3-0.3c0.5-0.2,1-0.5,1.4-0.8l1.5-3.4l2.8,0.3l-0.7,5.2c-0.5,0-0.9,0.1-1.4,0.2c-0.5,0.1-0.7,0.2-0.9,0.2
		c-0.9,0.2-1.7,0.4-2.5,0.6c-0.8,0.1-1.7,0.2-2.8,0.2C293.6,226.1,290.7,224.9,288.7,222.7"/>
	<path class="st0" d="M319.4,223.4c-1.7-1.7-2.5-4.4-2.5-8v-12.1l-2.2-0.4v-2.1h10.1v2.1l-2.8,0.5v12.5c0,5.3,1.9,8,5.7,8
		c1.8,0,3.2-0.7,4.1-2c0.9-1.4,1.3-3.3,1.3-5.8v-12.6l-2.9-0.5v-2.1h8.4v2.1l-2.3,0.4v12.4c0,3.5-0.8,6.1-2.5,7.7
		c-1.7,1.7-4,2.5-6.8,2.5C323.6,226,321,225.1,319.4,223.4"/>
	<polygon class="st0" points="350.2,203.4 347.5,202.9 347.5,200.8 365.3,200.8 365.8,206.5 363.4,206.5 362.3,203.2 355.1,202.8 
		355.1,211.8 359.8,211.7 360.3,209 362.4,209 362.4,217.1 360.3,217.1 359.8,214.2 355.1,214.1 355.1,223.5 363.2,223.1 
		365.1,218.9 367.6,219.6 366.8,225.7 347.6,225.7 347.6,223.7 350.2,223.3 	"/>
	<polygon class="st0" points="379.5,203.4 376.9,202.9 376.9,200.8 387.6,200.8 387.6,202.9 384.4,203.4 384.4,223.3 391.5,223 
		393.7,216.8 396.4,217.1 395.3,225.7 376.8,225.7 376.8,223.7 379.5,223.3 	"/>
	<path class="st0" d="M413.3,200.7h5.1l7.7,22.6l1.9,0.3v2h-9.9v-2l2.5-0.3l-1.3-4.4h-8.7l-1.3,4.4l2.7,0.3v2h-8.5l0-2l2-0.3
		L413.3,200.7z M415.6,206.4l-0.6-2.6l-0.6,2.6l-3,10.3h7.4L415.6,206.4z"/>
	<path class="st0" d="M454.2,203.4l-2.5-0.4v-2.1h4.9c0.7,0,1.7,0,3-0.1c0.3,0,0.7,0,1.3-0.1c0.6,0,1.1,0,1.6,0c4.1,0,7.2,1,9.2,3.1
		c2,2,3.1,5,3.1,8.7c0,2.6-0.5,5-1.5,7c-1,2-2.5,3.7-4.3,4.8c-1.9,1.1-4.1,1.7-6.5,1.7c-0.6,0-1.7,0-3-0.1c-1.3-0.1-2.2-0.1-2.6-0.1
		h-5.1v-2l2.6-0.3V203.4z M462.2,223.7c2.2,0,4-0.9,5.3-2.7c1.3-1.8,1.9-4.4,1.9-7.9c0-3.3-0.6-5.9-1.9-7.7
		c-1.2-1.8-3.2-2.7-5.8-2.7c-0.6,0-1.1,0-1.6,0.1c-0.5,0.1-0.9,0.1-1.1,0.1v20.5C459.8,223.6,460.9,223.7,462.2,223.7"/>
	<polygon class="st0" points="487,203.4 484.3,202.9 484.3,200.8 502.1,200.8 502.6,206.5 500.2,206.5 499.1,203.2 491.9,202.8 
		491.9,211.8 496.6,211.7 497.1,209 499.2,209 499.2,217.1 497.1,217.1 496.6,214.2 491.9,214.1 491.9,223.5 500,223.1 501.9,218.9 
		504.4,219.6 503.6,225.7 484.4,225.7 484.4,223.7 487,223.3 	"/>
	<path class="st0" d="M536.7,200.7h5.1l7.7,22.6l1.9,0.3v2h-9.9v-2l2.5-0.3l-1.3-4.4h-8.7l-1.3,4.4l2.7,0.3v2H527l0-2l2-0.3
		L536.7,200.7z M539,206.4l-0.6-2.6l-0.6,2.6l-3,10.3h7.4L539,206.4z"/>
	<polygon class="st0" points="562.4,203.4 559.8,202.9 559.8,200.8 570.5,200.8 570.5,202.9 567.3,203.4 567.3,223.3 574.4,223 
		576.5,216.8 579.2,217.1 578.2,225.7 559.7,225.7 559.7,223.7 562.4,223.3 	"/>
	<polygon class="st0" points="596.5,203.1 591.7,203.2 590.4,210.5 587.6,210.5 588.2,200.8 609.7,200.8 610.1,210.5 607.5,210.5 
		606.2,203.2 601.5,203.1 601.5,223.3 606.1,223.7 606.1,225.7 592.2,225.7 592.2,223.7 596.5,223.3 	"/>
	<path class="st0" d="M621.9,222.6c-1.8-2.3-2.7-5.4-2.7-9.3c0-2.6,0.5-4.8,1.4-6.7c0.9-1.9,2.3-3.4,4-4.5c1.7-1,3.7-1.6,5.9-1.6
		c3.7,0,6.4,1.1,8.3,3.3c1.8,2.2,2.8,5.2,2.8,9.1c0,2.6-0.5,4.9-1.5,6.9c-1,2-2.3,3.5-4.1,4.6c-1.7,1.1-3.7,1.6-6,1.6
		C626.4,226.1,623.7,224.9,621.9,222.6 M626.1,205.3c-1,1.8-1.5,4.5-1.5,8c0,3.5,0.5,6.1,1.5,8c1,1.8,2.4,2.7,4.3,2.7
		c1.8,0,3.2-1,4.2-2.9c1-1.9,1.5-4.6,1.5-8.2c0-3.5-0.5-6.1-1.5-7.8c-1-1.7-2.4-2.6-4.2-2.6C628.6,202.6,627.2,203.5,626.1,205.3"/>
	<path class="st0" d="M656.6,225.7c-1-0.2-2-0.5-3.2-0.8c-0.8-0.2-1.3-0.3-1.6-0.4l0.3-6.2h2.7l0.7,4.3c0.3,0.3,0.8,0.6,1.6,0.8
		c0.8,0.2,1.6,0.4,2.6,0.4c1.5,0,2.6-0.3,3.4-1c0.7-0.7,1.1-1.6,1.1-2.8c0-0.8-0.2-1.5-0.7-2c-0.4-0.6-1.1-1.1-1.8-1.5
		c-0.8-0.5-1.9-1-3.2-1.6c-1.9-0.8-3.4-1.9-4.6-3c-1.2-1.2-1.8-2.8-1.8-4.8c0-1.2,0.3-2.4,1-3.4c0.6-1,1.6-1.8,2.9-2.4
		c1.3-0.6,2.8-0.9,4.7-0.9c1.1,0,2.1,0.1,2.9,0.2c0.8,0.2,1.7,0.4,2.7,0.6c0.6,0.2,1,0.3,1.3,0.3l-0.2,5.8h-2.7l-0.7-4.1
		c-0.2-0.2-0.6-0.4-1.2-0.6c-0.6-0.2-1.3-0.3-2-0.3c-1.3,0-2.3,0.3-3,0.9c-0.7,0.6-1,1.4-1,2.5c0,0.8,0.3,1.5,0.8,2.1
		c0.5,0.6,1.1,1.1,1.8,1.5c0.7,0.4,1.8,1,3.4,1.8c1.2,0.6,2.3,1.2,3.2,1.8c0.9,0.6,1.7,1.3,2.3,2.3c0.7,0.9,1,2,1,3.3
		c0,1.2-0.3,2.4-0.9,3.5c-0.6,1.1-1.6,2-3,2.8c-1.4,0.7-3.2,1.1-5.3,1.1C658.6,226.1,657.5,225.9,656.6,225.7"/>
	<polygon class="st0" points="696.6,203.4 693.9,202.9 693.9,200.8 711.8,200.8 712.2,206.5 709.8,206.5 708.7,203.2 701.5,202.8 
		701.5,211.8 706.2,211.7 706.7,209 708.9,209 708.9,217.1 706.7,217.1 706.2,214.2 701.5,214.1 701.5,223.5 709.6,223.1 
		711.6,218.9 714.1,219.6 713.2,225.7 694,225.7 694,223.7 696.6,223.3 	"/>
	<path class="st0" d="M728.6,225.7c-1-0.2-2-0.5-3.2-0.8c-0.8-0.2-1.3-0.3-1.6-0.4l0.3-6.2h2.7l0.7,4.3c0.3,0.3,0.8,0.6,1.6,0.8
		c0.7,0.2,1.6,0.4,2.6,0.4c1.5,0,2.6-0.3,3.4-1c0.7-0.7,1.1-1.6,1.1-2.8c0-0.8-0.2-1.5-0.7-2c-0.4-0.6-1.1-1.1-1.8-1.5
		c-0.8-0.5-1.9-1-3.2-1.6c-1.9-0.8-3.4-1.9-4.6-3c-1.2-1.2-1.8-2.8-1.8-4.8c0-1.2,0.3-2.4,1-3.4c0.7-1,1.6-1.8,2.9-2.4
		c1.3-0.6,2.8-0.9,4.7-0.9c1.1,0,2.1,0.1,2.9,0.2c0.8,0.2,1.7,0.4,2.7,0.6c0.6,0.2,1,0.3,1.3,0.3l-0.2,5.8h-2.7l-0.7-4.1
		c-0.2-0.2-0.6-0.4-1.2-0.6c-0.6-0.2-1.3-0.3-2-0.3c-1.3,0-2.3,0.3-3,0.9c-0.7,0.6-1,1.4-1,2.5c0,0.8,0.3,1.5,0.8,2.1
		c0.5,0.6,1.1,1.1,1.8,1.5c0.7,0.4,1.8,1,3.4,1.8c1.2,0.6,2.3,1.2,3.2,1.8c0.9,0.6,1.7,1.3,2.3,2.3c0.6,0.9,1,2,1,3.3
		c0,1.2-0.3,2.4-0.9,3.5c-0.6,1.1-1.6,2-3,2.8c-1.4,0.7-3.2,1.1-5.3,1.1C730.6,226.1,729.6,225.9,728.6,225.7"/>
	<polygon class="st0" points="758.8,203.1 754.1,203.2 752.8,210.5 750,210.5 750.5,200.8 772.1,200.8 772.5,210.5 769.8,210.5 
		768.5,203.2 763.8,203.1 763.8,223.3 768.5,223.7 768.5,225.7 754.6,225.7 754.6,223.7 758.8,223.3 	"/>
	<path class="st0" d="M785.9,223.4c-1.6-1.7-2.5-4.4-2.5-8v-12.1l-2.2-0.4v-2.1h10.1v2.1l-2.8,0.5v12.5c0,5.3,1.9,8,5.7,8
		c1.9,0,3.2-0.7,4.1-2c0.9-1.4,1.3-3.3,1.3-5.8v-12.6l-2.9-0.5v-2.1h8.4v2.1l-2.3,0.4v12.4c0,3.5-0.8,6.1-2.5,7.7
		c-1.7,1.7-3.9,2.5-6.8,2.5C790.1,226,787.5,225.1,785.9,223.4"/>
	<path class="st0" d="M816.7,203.4l-2.5-0.4v-2.1h4.9c0.7,0,1.7,0,3-0.1c0.3,0,0.7,0,1.3-0.1c0.6,0,1.1,0,1.6,0c4.1,0,7.2,1,9.2,3.1
		c2,2,3.1,5,3.1,8.7c0,2.6-0.5,5-1.5,7c-1,2-2.5,3.7-4.3,4.8c-1.9,1.1-4.1,1.7-6.5,1.7c-0.6,0-1.7,0-3-0.1c-1.3-0.1-2.2-0.1-2.6-0.1
		h-5.1v-2l2.6-0.3V203.4z M824.7,223.7c2.2,0,4-0.9,5.2-2.7c1.3-1.8,1.9-4.4,1.9-7.9c0-3.3-0.6-5.9-1.9-7.7
		c-1.3-1.8-3.2-2.7-5.8-2.7c-0.6,0-1.1,0-1.6,0.1c-0.5,0.1-0.9,0.1-1.1,0.1v20.5C822.3,223.6,823.4,223.7,824.7,223.7"/>
	<polygon class="st0" points="849.9,203.4 847.1,202.9 847.1,200.8 857.8,200.8 857.8,202.9 854.8,203.4 854.8,223.3 857.8,223.7 
		857.8,225.7 847.1,225.7 847.1,223.7 849.9,223.3 	"/>
	<path class="st0" d="M870.3,222.6c-1.8-2.3-2.7-5.4-2.7-9.3c0-2.6,0.5-4.8,1.4-6.7c0.9-1.9,2.3-3.4,4-4.5c1.7-1,3.7-1.6,5.9-1.6
		c3.7,0,6.4,1.1,8.3,3.3c1.8,2.2,2.8,5.2,2.8,9.1c0,2.6-0.5,4.9-1.5,6.9c-1,2-2.3,3.5-4.1,4.6c-1.7,1.1-3.7,1.6-6,1.6
		C874.9,226.1,872.1,224.9,870.3,222.6 M874.6,205.3c-1,1.8-1.5,4.5-1.5,8c0,3.5,0.5,6.1,1.5,8c1,1.8,2.4,2.7,4.3,2.7
		c1.8,0,3.2-1,4.2-2.9c1-1.9,1.5-4.6,1.5-8.2c0-3.5-0.5-6.1-1.5-7.8c-1-1.7-2.4-2.6-4.2-2.6C877,202.6,875.6,203.5,874.6,205.3"/>
	<path class="st0" d="M905,225.7c-1-0.2-2-0.5-3.2-0.8c-0.8-0.2-1.3-0.3-1.6-0.4l0.3-6.2h2.7l0.7,4.3c0.3,0.3,0.8,0.6,1.6,0.8
		c0.7,0.2,1.6,0.4,2.6,0.4c1.5,0,2.6-0.3,3.4-1c0.8-0.7,1.1-1.6,1.1-2.8c0-0.8-0.2-1.5-0.7-2c-0.4-0.6-1.1-1.1-1.8-1.5
		c-0.8-0.5-1.9-1-3.2-1.6c-1.9-0.8-3.4-1.9-4.6-3c-1.2-1.2-1.8-2.8-1.8-4.8c0-1.2,0.3-2.4,1-3.4c0.7-1,1.6-1.8,2.9-2.4
		c1.3-0.6,2.8-0.9,4.7-0.9c1.1,0,2.1,0.1,2.9,0.2c0.8,0.2,1.7,0.4,2.7,0.6c0.6,0.2,1,0.3,1.3,0.3l-0.2,5.8H913l-0.7-4.1
		c-0.2-0.2-0.6-0.4-1.2-0.6c-0.6-0.2-1.3-0.3-2-0.3c-1.3,0-2.3,0.3-3,0.9c-0.7,0.6-1,1.4-1,2.5c0,0.8,0.3,1.5,0.8,2.1
		c0.5,0.6,1.1,1.1,1.8,1.5c0.7,0.4,1.8,1,3.4,1.8c1.2,0.6,2.3,1.2,3.2,1.8c0.9,0.6,1.7,1.3,2.3,2.3c0.7,0.9,1,2,1,3.3
		c0,1.2-0.3,2.4-0.9,3.5c-0.6,1.1-1.6,2-3,2.8c-1.4,0.7-3.2,1.1-5.3,1.1C907,226.1,906,225.9,905,225.7"/>
	<path class="st0" d="M244.5,165.5c-10.2-9.1-15-24.9-15-36.8c0-14.2,4.5-27,14.2-37.3c7.9-8.4,19.3-14.9,36.4-14.9
		c12.5,0,22.9,3.2,27.7,5.8c1.9,1,2.6,0.8,2.9-0.1l1.1-3.4c0.3-0.8,0.6-0.8,2.6-0.8c2.1,0,2.3,0.3,2.3,2.2c0,2.6,2.5,26,3.2,30.2
		c0.1,1,0,1.7-0.7,1.8l-3,0.8c-0.7,0.3-1.2-0.3-1.7-1.5c-1.5-5.5-5.2-12.5-11-18.5c-5.9-5.8-13.2-10.3-23.7-10.3
		c-20.1,0-28.7,18.3-28.5,38.7c0,8.7,2.5,25.6,12.3,36c9,9.2,16.8,10.3,21.5,10.3c15.7,0,27.4-7.2,32.5-14.7
		c0.7-1.1,1.4-1.7,2.1-1.1l2.3,2.1c0.4,0.3,0.6,0.8,0,1.7c-8,11.6-21.4,22.7-40.8,22.7C262.9,178.2,253.2,173.3,244.5,165.5"/>
	<path class="st0" d="M357.6,138.3c-1.1,2.9-7.9,21.8-7.9,26.2c0,3,1.2,6.3,5.4,6.3h4.8c1.4,0,1.5,0.6,1.5,1.1v3
		c0,1.1-0.1,1.5-1.2,1.5c-1.8,0-7.4-0.4-18.7-0.4c-10.1,0-13.1,0.4-15,0.4c-0.8,0-1-0.8-1-1.8v-2.6c0-0.8,0.1-1.2,1-1.2h3.6
		c3.3,0,6.6-1.9,9.4-6.1c1.9-2.9,11.7-26.9,16.3-39c1.1-2.8,12.3-32.4,13.5-36.1c0.4-1.4,1.1-3.2,0.1-4.7c-0.4-0.6-1-1.2-1-1.8
		c0-0.4,0.3-1,1.4-1.2c4.4-1,13.4-4.6,15.4-6.9c0.7-0.7,1.1-1.2,1.8-1.2c0.8,0,1.1,0.8,1.5,2.3c2.6,8.7,13.4,39.6,16,48.4
		c3.2,10.7,12.1,36.4,14.1,40.1c2.3,4.5,5.9,6.2,8,6.2h4.7c0.8,0,1,0.6,1,1.2v2.6c0,0.8-0.1,1.8-1.2,1.8c-2.6,0-5.5-0.4-23.1-0.4
		c-11.4,0-16.3,0.4-19,0.4c-1.4,0-1.5-0.8-1.5-1.8v-2.6c0-0.7,0.1-1.2,0.8-1.2h3.9c3.7,0,5-1.4,4.1-5c-1.2-5-6.6-22.6-8.3-27.6
		H357.6z M386.6,132.8l-10.3-36.5c-0.6-2.1-0.8-3-1.5-3c-0.8,0-1.2,0.5-1.7,1.8c-0.7,1.8-12.5,34.3-13.6,37.8H386.6z"/>
	<path class="st0" d="M463.4,158.1c0.4,5.1,2.6,12.8,7.2,12.8h5.4c0.8,0,1,0.4,1,1v3.7c0,0.6-0.1,1-1.2,1c-1.5,0-5.2-0.4-15.3-0.4
		c-11.7,0-16.5,0.4-17.8,0.4c-1.1,0-1.2-0.1-1.2-1.2v-3.6c0-0.4,0.1-0.8,0.8-0.8h5.7c4.4,0,6.1-6.3,6.6-10.7
		c1.2-9.8,2.5-42.3,2.5-44.8l-0.1-21.1c0-6.3-1.4-10.5-7.6-10.5h-4.5c-0.8,0-1-0.4-1-1V79c0-0.4,0.1-0.8,1-0.8
		c1.4,0,5.1,0.4,21.4,0.4c6.5,0,10.7-0.4,12.4-0.4c1.4,0,2.5,0.1,3.3,2.3c8.8,23.4,18.7,46.3,26.5,67c1.5-2.6,12-28.2,12.8-30.2
		c0.6-1.4,14.3-34.3,15-37.1c0.4-1.5,2.2-1.7,6.3-1.7c21.5,0,26.2-0.4,27.7-0.4c0.7,0,0.8,0.4,0.8,1.2v3.2c0,0.8-0.1,1.2-1.1,1.2
		h-6.1c-3.2,0-3.6,2.5-3.6,5.4c0,2.1,0.1,36,0.3,38.9c0,2.8,0.4,32.9,0.4,35.4c0,5.2,1.2,7.4,3.2,7.4h6.6c0.8,0,1,0.4,1,1v3.4
		c0,0.8-0.1,1.2-1.2,1.2c-1.7,0-4.1-0.4-20.4-0.4c-14.1,0-19.4,0.4-21.2,0.4c-1,0-1.1-0.4-1.1-1.2v-3.4c0-0.7,0.1-1,1.1-1h7.7
		c2.3,0,3.6-0.8,3.9-4.7c0.1-1.7,0.6-26.7,0.6-36.4v-42H540c-1.4,2.3-16.8,39.8-19.3,45.5c-2.9,6.3-15.2,36.9-15.8,38.2
		c-0.7,1.1-1.7,3.2-3.3,3.2c-1,0-1.8-1-2.5-2.5c-0.4-1-18.6-43.7-19.6-46.2c-2.5-6.3-15.2-37.2-16.3-38.9
		c-0.6,1.9-0.8,36.8-0.8,38.4C462.4,127.3,462.6,146,463.4,158.1"/>
	<path class="st0" d="M594.5,118.3c0-3.3-0.4-28.1-0.6-29.9c-0.3-3.3-1.7-4.7-4.5-4.7h-6.6c-0.7,0-1.1-0.3-1.1-0.8v-4
		c0-0.6,0.4-0.8,1-0.8c1.7,0,8.7,0.4,22.2,0.4c14.1,0,18.5-0.4,20.4-0.4c0.7,0,1,0.4,1,1.2v3.4c0,0.7-0.4,1-1.1,1h-4
		c-3.4,0-5.5,1.1-5.5,3.6c0,1.4-0.4,31.8-0.4,33.5v10.6c0,1.4,0.4,33.2,0.4,34.4c0,4.3,2.1,5,4.7,5h5.7c0.7,0,1.1,0.3,1.1,1v3.9
		c0,0.6-0.4,0.8-1.2,0.8c-1.7,0-7.2-0.4-20.3-0.4c-14.5,0-20.4,0.4-21.9,0.4c-0.7,0-1.1-0.3-1.1-1.1v-3.7c0-0.6,0.4-0.8,1.1-0.8h4
		c2.8,0,5.7-0.4,6.2-3.7c0.3-2.1,0.7-31.8,0.7-39.1V118.3z"/>
	<path class="st0" d="M670.3,139.6c0,6.5,0.1,25.2,0.3,26.9c0.3,3,1.7,4.4,3.9,4.4h7c1,0,1.1,0.4,1.1,1v3.6c0,0.7-0.1,1.1-1.2,1.1
		c-1.9,0-6.2-0.4-22.3-0.4c-12.1,0-17.5,0.4-19,0.4c-1,0-1.1-0.4-1.1-1v-3.7c0-0.7,0.1-1,0.8-1h3.6c4.7,0,5.7-0.7,6.1-4.1
		c0.1-1.4,0.6-22.9,0.6-38.9V112c0-9.1-0.1-23.6-0.3-25.2c-0.3-2.8-1.6-3-4.4-3h-6.5c-0.7,0-0.8-0.3-0.8-1.1v-3.6c0-0.7,0.1-1,0.8-1
		c1.5,0,6.5,0.4,21,0.4c2.5,0,10.6-0.4,15.2-0.4c17,0,25.1,1.4,33.1,7.6c5.8,4.4,9.9,12.3,9.9,21.4c0,16.5-13.2,27.8-36.4,27.8
		c-4.3,0-7.4-0.1-11.2-0.4V139.6z M670.3,129.1c3,0.7,6.2,0.8,8.4,0.8c4.3,0,11.2-4.4,14.2-9.2c2.8-4.3,3.3-9.5,3.3-14.6
		c0-19-13.8-23-19.4-23c-2.3,0-4,0.1-6.5,0.7V129.1z"/>
	<path class="st0" d="M757.3,123.3c6.3,0,12.4-0.4,14.1-0.8c2.3-0.5,4.3-1.8,6.3-4.3c1.5-2.1,3.2-5.9,3.2-8.5c0-1,0.4-1.2,1.1-1.2
		l3.7,0.4c0.7,0.1,1.2,0.3,1.1,1.1c-0.4,2.3-0.4,9.5-0.4,14.3c0,6.2,0.5,12.8,0.8,15.7c0.1,0.8-0.4,1-1.1,1.1l-3.3,0.7
		c-0.6,0.1-0.8-0.1-1.1-1.1c-0.5-2.2-1.9-5.4-2.8-7c-1.5-2.6-4.8-4.4-7.6-4.8c-3.7-0.5-8-0.8-14.1-0.8v8.3c0,7.4,0.7,20.8,0.7,23.3
		c0,7.2,1.5,9.6,3.3,10.5c2.1,0.8,4.7,1.2,11.6,1.2c2.3,0,8.1-0.1,11-0.4c2.8-0.3,6.9-1.7,10.5-4.6c3.6-2.9,11.3-11.4,14.1-14.7
		c0.5-0.6,1-0.7,1.4-0.4l2.3,1.4c0.6,0.3,0.7,0.7,0.6,1.1l-6.2,20.8c-0.4,1.2-1.4,2.1-3,2.1c-0.7,0-3.7-0.1-12.5-0.3
		c-9,0-23.6-0.1-47.4-0.1c-5.1,0-9,0.1-11.7,0.1c-2.9,0.1-4.7,0.3-5.9,0.3c-1,0-1.2-0.4-1.2-1.5v-2.9c0-0.8,0.4-1.2,1.4-1.2h4.1
		c6.3,0,6.9-1,6.9-5.8v-46.2c0-11.4-0.3-28.4-0.4-29.8c-0.5-4.4-1.9-5.4-5.6-5.4h-5.4c-0.6,0-0.7-0.4-0.7-1.4v-3.3c0-0.4,0.1-1,1-1
		c3,0,7.9,0.4,20.4,0.4l48.4-0.1c2.2,0,4.8-0.3,5.5-0.3c0.7,0,1,0.3,1.1,0.7c0.6,1.9,5.1,20.8,5.7,22.2c0.3,0.7,0.3,1-0.4,1.4
		l-2.2,1.1c-0.6,0.3-1.2,0.1-1.7-0.6c-0.7-1.1-13.1-13.5-16.3-15.4c-2.9-1.8-6.8-3.6-10.5-3.7l-18.2-0.6L757.3,123.3z"/>
	<path class="st0" d="M832.5,113.4c0-10.2,0-19-0.1-22.7c-0.1-4.5-1.9-6.9-3.9-6.9H823c-0.7,0-0.8-0.4-0.8-1v-3.7c0-0.7,0.1-1,0.8-1
		c1.2,0,5.5,0.4,20.5,0.4c7.7,0,19.8-0.4,25.5-0.4c10.7,0,18.7,3.9,24.4,9.1c5,4.5,7.9,9.9,7.9,15c0,17.5-13.1,25.4-25.2,26.5v1
		c4.3,1.4,6.5,4,9.1,7.3c1.8,2.2,9.4,14.5,10.5,16.1c0.8,1.2,8.3,11.7,11,14.9c1.7,1.8,6.9,2.9,10.1,2.9c1,0,1.1,0.6,1.1,1.1v3.3
		c0,0.8-0.1,1.2-1.1,1.2c-1.1,0-4.7-0.4-15.3-0.4c-4,0-9.1,0.3-13.1,0.4c-4.1-3.2-12.7-19.2-15-23.8c-4.7-9.4-10.3-19.6-17-19.6
		h-4.7v7c0,8.1,0.4,23.6,0.7,25.3c0.3,2.9,1.4,5.4,3.4,5.4h5.7c1,0,1.1,0.4,1.1,1.1v3.3c0,1-0.1,1.2-2.2,1.2
		c-0.1,0-3.6-0.4-18.1-0.4c-14.6,0-17.8,0.4-19.3,0.4c-1.1,0-1.1-0.4-1.1-1.4v-3.2c0-0.7,0-1.1,0.7-1.1h4.1c3,0,5.5-1,5.5-4.4
		c0.3-13.6,0.3-26.6,0.3-39.7V113.4z M851.8,128.3c2.6,0.1,4.3,0.1,5.5,0.1c18.2,0,22.5-17.4,22.5-23.8c0-6.3-2.2-12.4-5.2-15.4
		c-5-4.4-11.2-6.1-15.3-6.1c-2.3,0-4.1,0.3-5.2,1.2c-0.8,0.6-1.2,2.1-1.5,3.7L851.8,128.3z"/>
</g>
</svg>
