<?xml version="1.0" encoding="utf-8"?>
<!-- Generator: Adobe Illustrator 17.0.0, SVG Export Plug-In . SVG Version: 6.00 Build 0)  -->
<!DOCTYPE svg PUBLIC "-//W3C//DTD SVG 1.1//EN" "http://www.w3.org/Graphics/SVG/1.1/DTD/svg11.dtd">
<svg version="1.1" id="Capa_1" xmlns="http://www.w3.org/2000/svg" xmlns:xlink="http://www.w3.org/1999/xlink" x="0px" y="0px"
	 width="300px" height="100px" viewBox="0 0 300 100" enable-background="new 0 0 300 100" xml:space="preserve">
<g>
	<path fill="#FFFFFF" d="M120.244,43.613c0-8.206-6.7-14.857-14.963-14.857c-0.07,0-0.141,0-0.211,0l-14.998,0.021v30.01l0,0
		L72.611,28.763h-3.266l-8.614,14.815L52.18,28.777h-3.287L32.875,56.492c0,0-1.154,1.907-1.71,2.477
		c-0.725,0.739-1.907,1.752-3.491,2.477c-1.513,0.626-3.16,0.964-4.821,0.964c-7.108,0-12.851-5.933-12.478-13.069
		c0.331-6.214,5.384-11.31,11.634-11.711c2.871-0.183,5.666,0.584,8.002,2.21l1.084,0.908l0.415,0.415l4.525-7.826L35.62,33
		l-0.845-0.619c-3.54-2.379-7.657-3.625-11.929-3.625c-5.715,0-11.085,2.21-15.131,6.222c-4.455,4.42-6.7,10.451-6.193,16.764
		c0.345,4.314,2.034,8.453,4.821,11.781c4.012,4.793,9.733,7.531,15.885,7.706c8.72,0,12.077-2.653,15.202-5.743
		c1.196-1.182,2.843-4.089,2.843-4.089l10.289-17.799l16.082,27.574h10.275L65.946,52.368l5.201-8.755l15.955,27.61h11.873V59.054
		h6.088h0.218c8.262,0,14.97-6.658,14.97-14.864c0-0.042,0-0.084,0-0.127v-0.45H120.244z M105.373,50.292h-6.39V37.603h6.39
		c3.526,0,6.39,2.85,6.39,6.348C111.763,47.449,108.899,50.292,105.373,50.292z"/>
	<g>
		<g>
			<path fill="#FFFFFF" d="M135.375,36.603c-0.183-0.303-0.422-0.563-0.697-0.788c-0.282-0.225-0.598-0.401-0.95-0.528
				s-0.725-0.19-1.105-0.19c-0.704,0-1.302,0.134-1.795,0.408c-0.493,0.274-0.894,0.64-1.196,1.098s-0.528,0.978-0.669,1.562
				c-0.141,0.584-0.211,1.189-0.211,1.816c0,0.598,0.07,1.182,0.211,1.745c0.141,0.563,0.359,1.077,0.669,1.527
				c0.303,0.45,0.704,0.816,1.196,1.084c0.493,0.274,1.091,0.408,1.795,0.408c0.957,0,1.703-0.296,2.245-0.88
				c0.542-0.584,0.866-1.358,0.985-2.315h3.033c-0.077,0.894-0.289,1.696-0.619,2.414c-0.331,0.718-0.774,1.33-1.316,1.837
				c-0.542,0.507-1.182,0.894-1.914,1.154c-0.732,0.267-1.534,0.401-2.414,0.401c-1.091,0-2.069-0.19-2.942-0.57
				c-0.873-0.38-1.605-0.901-2.203-1.562c-0.598-0.662-1.056-1.443-1.379-2.344c-0.317-0.901-0.479-1.865-0.479-2.9
				c0-1.063,0.162-2.048,0.479-2.963c0.317-0.908,0.781-1.703,1.379-2.386c0.598-0.683,1.33-1.211,2.203-1.598
				c0.873-0.387,1.851-0.577,2.942-0.577c0.781,0,1.527,0.113,2.224,0.338c0.697,0.225,1.323,0.556,1.872,0.985
				c0.549,0.429,1.006,0.964,1.365,1.605s0.584,1.372,0.676,2.196h-3.026C135.678,37.23,135.558,36.906,135.375,36.603z"/>
			<path fill="#FFFFFF" d="M148.121,32.803l5.328,14.238h-3.251l-1.077-3.174h-5.328l-1.119,3.174h-3.153l5.384-14.238
				C144.905,32.803,148.121,32.803,148.121,32.803z M148.297,41.537l-1.795-5.229h-0.042l-1.858,5.229H148.297z M144.968,31.529
				l1.914-2.829h3.132l-3.069,2.829H144.968z"/>
			<path fill="#FFFFFF" d="M159.093,32.803l3.329,9.79h0.042l3.153-9.79h4.406v14.238h-2.935V36.955h-0.042l-3.491,10.092h-2.414
				l-3.491-9.994h-0.042v9.994h-2.935V32.803H159.093z"/>
			<path fill="#FFFFFF" d="M179.876,32.803l5.328,14.238h-3.252l-1.077-3.174h-5.328l-1.119,3.174h-3.153l5.384-14.238
				C176.66,32.803,179.876,32.803,179.876,32.803z M180.052,41.537l-1.795-5.229h-0.042l-1.858,5.229H180.052z"/>
			<path fill="#FFFFFF" d="M194.114,32.803c0.64,0,1.211,0.106,1.724,0.31c0.514,0.204,0.95,0.486,1.316,0.845
				s0.647,0.774,0.837,1.246s0.289,0.978,0.289,1.527c0,0.838-0.176,1.562-0.528,2.175c-0.352,0.612-0.929,1.077-1.724,1.394v0.042
				c0.387,0.106,0.704,0.267,0.957,0.486c0.253,0.218,0.457,0.479,0.619,0.781c0.162,0.303,0.274,0.626,0.352,0.985
				c0.07,0.359,0.12,0.718,0.148,1.077c0.014,0.225,0.028,0.493,0.042,0.795c0.014,0.303,0.035,0.619,0.07,0.936
				c0.035,0.317,0.084,0.619,0.162,0.908c0.07,0.289,0.183,0.528,0.331,0.725h-3.132c-0.176-0.45-0.282-0.992-0.317-1.619
				c-0.042-0.626-0.099-1.225-0.183-1.795c-0.106-0.746-0.331-1.288-0.676-1.633c-0.345-0.345-0.908-0.521-1.696-0.521h-3.132v5.567
				h-3.132V32.803H194.114z M192.995,39.25c0.718,0,1.26-0.162,1.619-0.479c0.359-0.317,0.542-0.838,0.542-1.555
				c0-0.69-0.176-1.196-0.542-1.506c-0.359-0.31-0.901-0.472-1.619-0.472h-3.427v4.012H192.995z"/>
			<path fill="#FFFFFF" d="M207.936,32.803l5.328,14.238h-3.252l-1.077-3.174h-5.328l-1.119,3.174h-3.153l5.384-14.238
				C204.72,32.803,207.936,32.803,207.936,32.803z M208.119,41.537l-1.795-5.229h-0.042l-1.858,5.229H208.119z"/>
			<path fill="#FFFFFF" d="M224.454,32.803l3.329,9.79h0.042l3.153-9.79h4.406v14.238h-2.935V36.955h-0.042l-3.491,10.092h-2.414
				l-3.491-9.994h-0.042v9.994h-2.935V32.803H224.454z"/>
			<path fill="#FFFFFF" d="M241.267,32.803v14.238h-3.132V32.803H241.267z"/>
			<path fill="#FFFFFF" d="M247.13,32.803l5.947,9.55h0.042v-9.55h2.935v14.238h-3.139l-5.926-9.536h-0.042v9.536h-2.935V32.803
				H247.13z"/>
			<path fill="#FFFFFF" d="M269.447,32.803v2.632h-7.516v3.054h6.904v2.435h-6.904v3.491h7.678v2.632h-10.81V32.803H269.447z"/>
			<path fill="#FFFFFF" d="M279.399,32.803c0.64,0,1.211,0.106,1.724,0.31s0.95,0.486,1.316,0.845s0.647,0.774,0.838,1.246
				c0.19,0.472,0.289,0.978,0.289,1.527c0,0.838-0.176,1.562-0.528,2.175s-0.929,1.077-1.724,1.394v0.042
				c0.387,0.106,0.704,0.267,0.957,0.486c0.253,0.218,0.457,0.479,0.619,0.781c0.162,0.303,0.274,0.626,0.352,0.985
				c0.07,0.359,0.12,0.718,0.148,1.077c0.014,0.225,0.028,0.493,0.042,0.795c0.014,0.303,0.035,0.619,0.07,0.936
				c0.035,0.317,0.084,0.619,0.162,0.908c0.07,0.289,0.183,0.528,0.331,0.725h-3.139c-0.176-0.45-0.281-0.992-0.317-1.619
				c-0.042-0.626-0.099-1.225-0.183-1.795c-0.106-0.746-0.331-1.288-0.676-1.633s-0.908-0.521-1.696-0.521h-3.132v5.567h-3.132
				V32.803H279.399z M278.287,39.25c0.718,0,1.26-0.162,1.619-0.479c0.359-0.317,0.542-0.838,0.542-1.555
				c0-0.69-0.176-1.196-0.542-1.506c-0.359-0.31-0.901-0.472-1.619-0.472h-3.427v4.012H278.287z"/>
			<path fill="#FFFFFF" d="M293.221,32.803l5.328,14.238h-3.252l-1.077-3.174h-5.328l-1.119,3.174h-3.153l5.384-14.238
				C290.005,32.803,293.221,32.803,293.221,32.803z M293.404,41.537l-1.795-5.229h-0.042l-1.858,5.229H293.404z"/>
			<path fill="#FFFFFF" d="M132.384,56.739c0.915,0,1.774,0.148,2.562,0.436c0.788,0.296,1.478,0.732,2.055,1.316
				c0.577,0.584,1.028,1.316,1.358,2.196c0.324,0.88,0.486,1.907,0.486,3.09c0,1.035-0.134,1.992-0.401,2.871
				c-0.267,0.88-0.669,1.633-1.203,2.273c-0.542,0.64-1.211,1.14-2.013,1.506s-1.752,0.549-2.843,0.549h-6.144V56.739H132.384z
				 M132.166,68.344c0.45,0,0.894-0.07,1.316-0.218c0.422-0.148,0.802-0.387,1.14-0.725c0.331-0.338,0.598-0.781,0.795-1.323
				c0.197-0.542,0.303-1.211,0.303-1.992c0-0.718-0.07-1.365-0.211-1.942c-0.141-0.577-0.366-1.077-0.69-1.485
				c-0.317-0.415-0.739-0.725-1.267-0.95c-0.528-0.218-1.175-0.331-1.942-0.331h-2.231v8.973h2.787V68.344z"/>
			<path fill="#FFFFFF" d="M151.668,56.739v2.632h-7.516v3.054h6.904v2.435h-6.904v3.491h7.678v2.632h-10.81V56.739H151.668z"/>
			<path fill="#FFFFFF" d="M157.073,56.739v11.605h6.939v2.632h-10.071V56.739H157.073z"/>
			<path fill="#FFFFFF" d="M177.736,56.739c0.894,0,1.647,0.127,2.273,0.387c0.626,0.26,1.133,0.605,1.527,1.028
				c0.394,0.422,0.676,0.908,0.859,1.457c0.183,0.542,0.267,1.112,0.267,1.696c0,0.57-0.092,1.133-0.267,1.682
				c-0.176,0.549-0.465,1.042-0.859,1.464c-0.394,0.422-0.901,0.767-1.527,1.028c-0.626,0.26-1.386,0.387-2.273,0.387h-3.294v5.11
				h-3.132V56.739H177.736z M176.885,63.439c0.359,0,0.704-0.028,1.035-0.077c0.331-0.056,0.626-0.155,0.88-0.31
				c0.253-0.155,0.457-0.366,0.605-0.647c0.155-0.282,0.232-0.647,0.232-1.098c0-0.45-0.077-0.816-0.232-1.098
				c-0.155-0.282-0.359-0.493-0.605-0.647c-0.253-0.155-0.549-0.253-0.88-0.31s-0.676-0.077-1.035-0.077h-2.435v4.265
				L176.885,63.439L176.885,63.439z"/>
			<path fill="#FFFFFF" d="M195.268,56.739v2.632h-7.516v3.054h6.904v2.435h-6.904v3.491h7.678v2.632h-10.81V56.739H195.268z"/>
			<path fill="#FFFFFF" d="M205.226,56.739c0.64,0,1.211,0.106,1.724,0.31c0.514,0.204,0.95,0.486,1.316,0.845
				s0.647,0.774,0.838,1.246c0.19,0.472,0.289,0.978,0.289,1.527c0,0.838-0.176,1.562-0.528,2.175
				c-0.352,0.612-0.929,1.077-1.724,1.394v0.042c0.387,0.106,0.704,0.267,0.957,0.486s0.457,0.479,0.619,0.781
				c0.162,0.303,0.274,0.626,0.352,0.985c0.07,0.359,0.12,0.718,0.148,1.077c0.014,0.225,0.028,0.493,0.042,0.795
				c0.014,0.303,0.035,0.619,0.07,0.936c0.035,0.317,0.084,0.619,0.162,0.908c0.07,0.289,0.183,0.528,0.331,0.725h-3.146
				c-0.176-0.45-0.282-0.992-0.317-1.619c-0.042-0.626-0.099-1.225-0.183-1.795c-0.106-0.746-0.331-1.288-0.676-1.633
				s-0.908-0.521-1.696-0.521h-3.132v5.567h-3.132V56.739H205.226z M204.107,63.178c0.718,0,1.26-0.162,1.619-0.479
				c0.359-0.317,0.542-0.838,0.542-1.555c0-0.69-0.176-1.196-0.542-1.506c-0.359-0.31-0.901-0.472-1.619-0.472h-3.427v4.012H204.107
				z"/>
			<path fill="#FFFFFF" d="M222.413,69.893c-1.077,0.936-2.569,1.408-4.469,1.408c-1.928,0-3.42-0.465-4.476-1.394
				c-1.056-0.929-1.584-2.365-1.584-4.307v-8.861h3.132v8.854c0,0.387,0.035,0.767,0.099,1.14s0.204,0.704,0.422,0.985
				c0.211,0.289,0.507,0.521,0.887,0.697c0.38,0.183,0.887,0.267,1.527,0.267c1.119,0,1.886-0.246,2.315-0.746
				c0.422-0.5,0.64-1.281,0.64-2.344v-8.854h3.132v8.854C224.032,67.521,223.49,68.957,222.413,69.893z M216.452,55.465l1.914-2.829
				h3.132l-3.069,2.829H216.452z"/>
		</g>
	</g>
</g>
</svg>
