<?xml version="1.0" encoding="utf-8"?>
<!-- Generator: Adobe Illustrator 17.0.0, SVG Export Plug-In . SVG Version: 6.00 Build 0)  -->
<!DOCTYPE svg PUBLIC "-//W3C//DTD SVG 1.1//EN" "http://www.w3.org/Graphics/SVG/1.1/DTD/svg11.dtd">
<svg version="1.1" id="Capa_1" xmlns="http://www.w3.org/2000/svg" xmlns:xlink="http://www.w3.org/1999/xlink" x="0px" y="0px"
	 width="300px" height="100px" viewBox="0 0 300 100" enable-background="new 0 0 300 100" xml:space="preserve">
<g>
	<path fill="#CE1618" d="M120.244,43.613c0-8.206-6.7-14.857-14.963-14.857c-0.07,0-0.141,0-0.211,0l-14.998,0.021v30.01l0,0
		L72.611,28.763h-3.266l-8.614,14.815L52.18,28.777h-3.287L32.875,56.492c0,0-1.154,1.907-1.71,2.477
		c-0.725,0.739-1.907,1.752-3.491,2.477c-1.513,0.626-3.16,0.964-4.821,0.964c-7.108,0-12.851-5.933-12.478-13.069
		c0.331-6.214,5.384-11.31,11.634-11.711c2.871-0.183,5.666,0.584,8.002,2.21l1.084,0.908l0.415,0.415l4.525-7.826L35.62,33
		l-0.845-0.619c-3.54-2.379-7.657-3.625-11.929-3.625c-5.715,0-11.085,2.21-15.131,6.222c-4.455,4.42-6.7,10.451-6.193,16.764
		c0.345,4.314,2.034,8.453,4.821,11.781c4.012,4.793,9.733,7.531,15.885,7.706c8.72,0,12.077-2.653,15.202-5.743
		c1.196-1.182,2.843-4.089,2.843-4.089l10.289-17.799l16.082,27.574h10.275L65.946,52.368l5.201-8.755l15.955,27.61h11.873V59.054
		h6.088h0.218c8.262,0,14.97-6.658,14.97-14.864c0-0.042,0-0.084,0-0.127v-0.45H120.244z M105.373,50.292h-6.39V37.603h6.39
		c3.526,0,6.39,2.85,6.39,6.348C111.763,47.449,108.899,50.292,105.373,50.292z"/>
</g>
</svg>
